PathFileType	4	(X/Y/Z)	7_coords_data.trc
DataRate	CameraRate	NumFrames	NumMarkers	Units	OrigDataRate	OrigDataStartFrame	OrigNumFrames
30.0	30.0	6	21	m	30.0	1	53
Frame#	Time	THUMB_TIP	THUMB_IP	THUMB_MCP	THUMB_CMC	INDEX_TIP	INDEX_DIP	INDEX_PIP	INDEX_MCP	MIDDLE_TIP	MIDDLE_DIP	MIDDLE_PIP	MIDDLE_MCP	RING_TIP	RING_DIP	RING_PIP	RING_MCP	PINKY_TIP	PINKY_DIP	PINKY_PIP	PINKY_MCP	WRIST
X1	Y1	Z1	X2	Y2	Z2	X3	Y3	Z3	X4	Y4	Z4	X5	Y5	Z5	X6	Y6	Z6	X7	Y7	Z7	X8	Y8	Z8	X9	Y9	Z9	X10	Y10	Z10	X11	Y11	Z11	X12	Y12	Z12	X13	Y13	Z13	X14	Y14	Z14	X15	Y15	Z15	X16	Y16	Z16	X17	Y17	Z17	X18	Y18	Z18	X19	Y19	Z19	X20	Y20	Z20	X21	Y21	Z21
0	-2.749317978547796e-18	0.46638106716805944	-0.020283703891303073	-0.1693960832236962	0.4773984228977876	-0.022371030570507155	-0.14933963936993905	0.47527909190515394	-0.03229986140510288	-0.11991606456330406	0.4769662535013968	-0.030656079228538635	-0.07537011675764882	0.5077044263484389	-0.019394586234498634	-0.10237650109174956	0.5255907458635458	-0.017355596326525502	-0.10435692891388515	0.5368527275639032	0.0023071648029259206	-0.11524515310091177	0.49617710542422483	0.013926363302662281	-0.12015678050675505	0.5034176496764424	-0.01945044688801123	-0.08665110999657533	0.5212214434523456	-0.017331385637441854	-0.08409484189611116	0.5389048837029264	0.004827736769020374	-0.0908534501167112	0.5025208656861893	0.02903071307731997	-0.10015759391276435	0.5046678004479088	-0.002948525409035674	-0.07477091214152976	0.5219969510920904	-0.0021169213459037994	-0.06987101697597342	0.5387072461616407	0.01616806076906485	-0.07244112334417019	0.5056863186499965	0.03841506567278341	-0.07947034471532288	0.5281579275252857	0.0055804226300176785	-0.061308466156158814	0.5207457168072802	-0.006169651543763366	-0.051308721700297544	0.5317580617650941	0.011702534940950082	-0.05166259708195475	0.5059869038126356	0.03630857434800028	-0.057254885834167824	0.4622830810018609	-0.023011742144276925	-0.051989820119430985
1	0.03333333333333339	0.4663887566512836	-0.02063897540694637	-0.16901452550734725	0.4775423147009613	-0.02266219703046446	-0.14902691141525015	0.47576917224714815	-0.03248249938903813	-0.11954407526564137	0.47744193340147767	-0.03085732062087776	-0.074996901796474	0.5077789999344271	-0.018558487319725536	-0.10314494253388595	0.5256769320678892	-0.016364354045932727	-0.10483307893916283	0.5372534904654673	0.0031169301479710976	-0.11571759522716674	0.49627686607559796	0.013833256640367053	-0.12015749321247537	0.504205173855856	-0.01948634032558294	-0.0862161607691907	0.5218920649058554	-0.016287196947824767	-0.08399369217908803	0.5396287929997238	0.005669288591767296	-0.0912552876837871	0.5026073147796879	0.029096839999130153	-0.10001359268297438	0.5044121296165611	-0.004499710654283007	-0.07356264978594462	0.5218300746312997	-0.0028132625895905816	-0.06923008883557791	0.5385841828042873	0.015407579749323719	-0.07196518349358516	0.5060445546286858	0.03830769177325155	-0.07914002157434774	0.5276043965493173	0.005610381550616439	-0.06091230812029835	0.5204368482385888	-0.006184034853439213	-0.050787191187585234	0.5318369642127296	0.011444303864255878	-0.051088934174825185	0.5061960060751648	0.03621092587759833	-0.05656973255059716	0.4622830810018609	-0.023011742144276925	-0.051989820119430985
2	0.06666666666666676	0.46642904295906007	-0.020978114458797603	-0.16869493098293997	0.4776978192189821	-0.022930466945837225	-0.14876497861545634	0.47617719962713473	-0.03264788817743136	-0.11923398742544289	0.4778273571091851	-0.03100557820302452	-0.07468659919411769	0.5079806976693182	-0.017962656827943735	-0.10366428330444533	0.525871500287485	-0.015574751485902483	-0.10515327281254949	0.5375958830518093	0.0038050548482959634	-0.11606069176684741	0.4963886109842039	0.013750002079710444	-0.12014662462370373	0.5048602401560116	-0.019199214839435208	-0.08594788300493006	0.5224578549696767	-0.015449028606320026	-0.08388389267384133	0.54019209587628	0.006379184288063056	-0.09152819586668004	0.5026756726818105	0.029153560638504494	-0.09989441924057618	0.5042904584851782	-0.005691900332859157	-0.07259020137945382	0.5217336602720719	-0.003288416807792016	-0.06872264680757734	0.538484706351323	0.014917946986970687	-0.07157058494306512	0.5062837672183413	0.0382479632659819	-0.0788870522173093	0.526740207730671	0.005767900452936625	-0.06081083274353194	0.5202073819059532	-0.006122989909507659	-0.050373931233398395	0.5318685839620239	0.011334536250602545	-0.05062525965710196	0.5062911347810177	0.0361778349478179	-0.056055550094454176	0.4622830810018609	-0.023011742144276925	-0.051989820119430985
3	0.10000000000000014	0.46649507882435776	-0.02129818107479453	-0.1684408205397936	0.47785869191523783	-0.02317530498347764	-0.1485575435625891	0.4765128196165784	-0.03279544925807987	-0.11898624917273293	0.47813119970461415	-0.031106248448768636	-0.07443944854107731	0.5082935714030716	-0.01757087561509474	-0.1039598825590271	0.526162192475849	-0.014959252993678729	-0.10533531276110963	0.5378985409832039	0.004387710757296381	-0.11628807270243802	0.4965143254917803	0.013676013767207729	-0.12012346438458599	0.5054032159038546	-0.01886970940610122	-0.08574735839587178	0.5229378142536271	-0.014796527780863045	-0.08376063945249312	0.5406266524719143	0.0069680058658767585	-0.09168652284976764	0.5027309876390943	0.029200905038525016	-0.09979606674923747	0.5042780522456745	-0.00653897139562698	-0.0718505397895598	0.5217076984544351	-0.0035727769681722643	-0.06832788118334021	0.5384166580780194	0.014661623101120291	-0.07124289428972863	0.5064223603388838	0.038230424329123824	-0.0786992576697153	0.5230281203462646	0.006042202481502779	-0.061850195644760575	0.5200518446894555	-0.005998867655392481	-0.05005382276268122	0.5318625481134915	0.011358506490125708	-0.05025597716398411	0.5062882389286925	0.03620385961323003	-0.05569165457425773	0.4622830810018609	-0.023011742144276925	-0.051989820119430985
4	0.13333333333333353	0.46658472120889904	-0.021596759232686558	-0.16825039063145397	0.4780236718352572	-0.023396730495562457	-0.14840321168782167	0.4767871569581496	-0.032925285254886694	-0.11879750826504776	0.4783636270296587	-0.031165508839315348	-0.07425193689054588	0.5087028352712357	-0.017347761570589815	-0.10405944444273818	0.5265370546474719	-0.014492103878742002	-0.10539579708604474	0.5381755352333661	0.004878378986118204	-0.11641124061928132	0.4966559920175748	0.013610477947738175	-0.12008738981055744	0.5058585277167859	-0.018584897935728373	-0.0855761778060411	0.5233480632891887	-0.014308108252346297	-0.08362036200035516	0.5409589269354804	0.007447219473231126	-0.09174272293695751	0.5027787811023405	0.029239107300293776	-0.09971379627076205	0.5043486357568921	-0.007069132185325455	-0.07132740995960785	0.5217472698441441	-0.0036945487171428093	-0.06802593781612587	0.5383823462291828	0.014602890832329685	-0.07096837194407757	0.5064780349760785	0.03824898888572903	-0.07856427902052776	0.5075429130667639	-0.01575471364602732	-0.04347887335455658	0.5199627944865666	-0.005822560151670264	-0.04981124040665985	0.5318264398223276	0.011499170290487637	-0.0499648400046282	0.5062028321284259	0.03628148947715859	-0.055455817647907524	0.4622830810018609	-0.023011742144276925	-0.051989820119430985
5	0.1666666666666669	0.466698884700563	-0.02187166061260859	-0.16811780672611998	0.47819478905381174	-0.02359497857847459	-0.14829674827079325	0.4770122531452383	-0.033037898062756366	-0.1186614166472344	0.47853573168668906	-0.03118998968516229	-0.07411757029600696	0.5091938359911433	-0.01725968605720629	-0.10399204234810366	0.5269838140444816	-0.014149651153072096	-0.10535011589427434	0.5384376576173079	0.005288262868216709	-0.11644005723362372	0.49681559235574363	0.013552385603247896	-0.12003784166052112	0.5062456870370091	-0.018371379992562442	-0.0854159912232555	0.5237022073535498	-0.013961758271663904	-0.08346019606097921	0.5412112981568299	0.007828609827273292	-0.09170768945929819	0.5028248797052535	0.029268580503098662	-0.09964232599037026	0.504479584329288	-0.0073215342358493585	-0.0709934045214562	0.5218441675831372	-0.003680291988073181	-0.06779768812084319	0.5383804459946935	0.014707490927157507	-0.07073382755177215	0.506467998865818	0.038297177272012206	-0.07846966948385026	0.5098230083435022	-0.016654614818215285	-0.04134180821832878	0.5199316255706532	-0.005603902048271325	-0.049630210056508695	0.5317664468578647	0.011737897426068233	-0.04973516286288637	0.5060500964490249	0.036401821148229874	-0.055324763857336756	0.4622830810018609	-0.023011742144276925	-0.051989820119430985
